<svg width="307" height="158" viewBox="0 0 307 158" fill="none" xmlns="http://www.w3.org/2000/svg">
<path d="M24.2632 85.4319V13.1182H35.7374V1.48565H0V13.1182H11.4742V85.4319H24.2632Z" fill="#9CDF9C"/>
<path d="M70.0806 45.8572C74.742 43.9385 77.3715 40.3408 77.3715 32.9055V17.0757C77.3715 6.64235 72.2321 1.48565 61.8335 1.48565H40.7975V85.4319H53.5865V51.7335H59.3236C63.0288 51.7335 64.7021 53.4124 64.7021 57.13V85.4319H77.4911V56.8902C77.4911 50.5342 75.3396 47.2963 70.0806 45.8572ZM64.5826 17.6753V35.4239C64.5826 38.9017 62.9093 40.5806 59.3236 40.5806H53.5865V12.8784H59.8017C63.0288 12.8784 64.5826 14.4374 64.5826 17.6753Z" fill="#9CDF9C"/>
<path d="M122.09 1.48565H109.301V69.9618C109.301 73.3197 107.747 74.8787 104.52 74.8787H102.488C99.1415 74.8787 97.5877 73.3197 97.5877 69.9618V1.48565H84.7988V70.5614C84.7988 80.9947 89.9383 86.1514 100.337 86.1514H106.552C116.95 86.1514 122.09 80.9947 122.09 70.5614V1.48565Z" fill="#9CDF9C"/>
<path d="M158.428 42.3795L145.519 32.9055C143.129 31.2266 141.934 29.5477 141.934 26.0699V16.7159C141.934 13.478 143.487 11.919 146.714 11.919H148.268C151.495 11.919 153.049 13.478 153.049 16.7159V31.4665H165.599V16.2362C165.599 5.92281 160.46 0.766113 150.181 0.766113H144.802C134.404 0.766113 129.264 5.92281 129.264 16.3561V27.8688C129.264 34.3446 130.937 38.3021 136.675 42.3795L149.583 51.8534C151.973 53.6523 153.169 55.2113 153.169 58.689V70.2017C153.169 73.4396 151.615 74.9986 148.268 74.9986H146.595C143.248 74.9986 141.695 73.4396 141.695 70.2017V52.9327H129.264V70.6813C129.264 80.9947 134.284 86.1514 144.683 86.1514H150.3C160.699 86.1514 165.838 80.9947 165.838 70.5614V56.8902C165.838 50.0546 164.045 46.4569 158.428 42.3795Z" fill="#9CDF9C"/>
<path d="M193.51 85.4319V13.1182H204.984V1.48565H169.246V13.1182H180.721V85.4319H193.51Z" fill="#9CDF9C"/>
<path d="M262.389 1.48565H249.6V69.9618C249.6 73.3197 248.047 74.8787 244.82 74.8787H242.788C239.441 74.8787 237.887 73.3197 237.887 69.9618V1.48565H225.098V70.5614C225.098 80.9947 230.238 86.1514 240.636 86.1514H246.851C257.25 86.1514 262.389 80.9947 262.389 70.5614V1.48565Z" fill="#9CDF9C"/>
<path d="M298.727 42.3795L285.819 32.9055C283.428 31.2266 282.233 29.5477 282.233 26.0699V16.7159C282.233 13.478 283.787 11.919 287.014 11.919H288.568C291.795 11.919 293.349 13.478 293.349 16.7159V31.4665H305.899V16.2362C305.899 5.92281 300.759 0.766113 290.48 0.766113H285.102C274.703 0.766113 269.564 5.92281 269.564 16.3561V27.8688C269.564 34.3446 271.237 38.3021 276.974 42.3795L289.883 51.8534C292.273 53.6523 293.468 55.2113 293.468 58.689V70.2017C293.468 73.4396 291.914 74.9986 288.568 74.9986H286.894C283.548 74.9986 281.994 73.4396 281.994 70.2017V52.9327H269.564V70.6813C269.564 80.9947 274.584 86.1514 284.982 86.1514H290.6C300.998 86.1514 306.138 80.9947 306.138 70.5614V56.8902C306.138 50.0546 304.345 46.4569 298.727 42.3795Z" fill="#9CDF9C"/>
<path d="M15.019 157.509V106.24H23.5434V100.18H0V106.24H8.52432V157.509H15.019Z" fill="#2E3330"/>
<path d="M49.9935 147.353V110.335C49.9935 103.21 46.5026 99.6881 39.4396 99.6881H37.004C29.941 99.6881 26.4501 103.21 26.4501 110.335V147.353C26.4501 154.478 29.941 158 37.004 158H39.4396C46.5026 158 49.9935 154.478 49.9935 147.353ZM43.4988 110.007V147.681C43.4988 150.629 42.1186 152.021 39.196 152.021H37.2476C34.325 152.021 32.9448 150.629 32.9448 147.681V110.007C32.9448 107.059 34.325 105.667 37.2476 105.667H39.196C42.1186 105.667 43.4988 107.059 43.4988 110.007Z" fill="#2E3330"/>
<path d="M90.0514 157.509L78.6857 128.353L90.3762 100.18H83.4756L72.2722 127.943V100.18H65.7774V157.509H72.2722V129.335L82.9073 157.509H90.0514Z" fill="#2E3330"/>
<path d="M110.242 157.509H118.361V100.18H112.191V141.538L102.773 100.18H93.843V157.509H100.013V112.628L110.242 157.509Z" fill="#2E3330"/>
<path d="M147.906 147.353V110.335C147.906 103.21 144.415 99.6881 137.352 99.6881H134.916C127.853 99.6881 124.362 103.21 124.362 110.335V147.353C124.362 154.478 127.853 158 134.916 158H137.352C144.415 158 147.906 154.478 147.906 147.353ZM141.411 110.007V147.681C141.411 150.629 140.031 152.021 137.108 152.021H135.16C132.237 152.021 130.857 150.629 130.857 147.681V110.007C130.857 107.059 132.237 105.667 135.16 105.667H137.108C140.031 105.667 141.411 107.059 141.411 110.007Z" fill="#2E3330"/>
<path d="M175.39 100.18H168.895L163.537 148.991L158.666 100.18H152.171L159.072 157.509H167.515L171.98 116.395L176.608 157.509H185.051L191.951 100.18H185.619L180.586 148.991L175.39 100.18Z" fill="#2E3330"/>
<path d="M213.393 125.159V100.18H206.898V157.509H213.393V131.301H223.947V157.509H230.441V100.18H223.947V125.159H213.393Z" fill="#2E3330"/>
<path d="M260.01 147.353V110.335C260.01 103.21 256.519 99.6881 249.456 99.6881H247.02C239.957 99.6881 236.466 103.21 236.466 110.335V147.353C236.466 154.478 239.957 158 247.02 158H249.456C256.519 158 260.01 154.478 260.01 147.353ZM253.515 110.007V147.681C253.515 150.629 252.135 152.021 249.212 152.021H247.264C244.341 152.021 242.961 150.629 242.961 147.681V110.007C242.961 107.059 244.341 105.667 247.264 105.667H249.212C252.135 105.667 253.515 107.059 253.515 110.007Z" fill="#2E3330"/>
<path d="M287.493 100.18H280.999L275.641 148.991L270.77 100.18H264.275L271.176 157.509H279.619L284.084 116.395L288.711 157.509H297.154L304.055 100.18H297.723L292.689 148.991L287.493 100.18Z" fill="#2E3330"/>
</svg>
