<svg width="311" height="168" viewBox="0 0 311 168" fill="none" xmlns="http://www.w3.org/2000/svg">
<path d="M23.0611 94.7895V100.511C23.0611 103.996 22.1973 106.683 20.4696 108.569C18.7831 110.415 16.2738 111.337 12.9419 111.337C9.60991 111.337 7.08009 110.415 5.35241 108.569C3.66587 106.683 2.8226 103.996 2.8226 100.511V78.1186C2.8226 74.6326 3.66587 71.9669 5.35241 70.1214C7.08009 68.2349 9.60991 67.2917 12.9419 67.2917C16.2738 67.2917 18.7831 68.2349 20.4696 70.1214C22.1973 71.9669 23.0611 74.6326 23.0611 78.1186V82.3017H16.644V77.6879C16.644 76.1295 16.3149 75.0427 15.6568 74.4276C15.0397 73.7714 14.1965 73.4433 13.127 73.4433C12.0574 73.4433 11.1936 73.7714 10.5354 74.4276C9.91842 75.0427 9.6099 76.1295 9.6099 77.6879V100.941C9.6099 102.5 9.91842 103.586 10.5354 104.201C11.1936 104.817 12.0574 105.124 13.127 105.124C14.1965 105.124 15.0397 104.817 15.6568 104.201C16.3149 103.586 16.644 102.5 16.644 100.941V94.7895H23.0611Z" fill="#2E3330"/>
<path d="M49.1455 110.845H42.2965L41.1241 103.033H32.7942L31.6219 110.845H25.3899L32.3006 67.7838H42.2348L49.1455 110.845ZM33.6581 97.1886H40.1986L36.9283 75.4118L33.6581 97.1886Z" fill="#2E3330"/>
<path d="M58.3532 79.6565V110.845H52.2446V67.7838H60.7596L67.732 93.5592V67.7838H73.7789V110.845H66.8064L58.3532 79.6565Z" fill="#2E3330"/>
<path d="M98.4619 67.7838C102 67.7838 104.55 68.604 106.113 70.2445C107.717 71.8849 108.519 74.3661 108.519 77.6879V79.2258C108.519 81.4404 108.17 83.2654 107.471 84.7008C106.771 86.1362 105.661 87.2025 104.139 87.8997C105.99 88.5968 107.285 89.7452 108.026 91.3446C108.807 92.903 109.198 94.8305 109.198 97.1271V100.634C109.198 103.955 108.334 106.498 106.607 108.262C104.879 109.984 102.308 110.845 98.8938 110.845H88.2192V67.7838H98.4619ZM95.0065 91.4676V104.694H98.8938C100.046 104.694 100.909 104.386 101.485 103.771C102.102 103.156 102.411 102.048 102.411 100.449V96.6965C102.411 94.687 102.061 93.3131 101.362 92.5749C100.704 91.8367 99.5931 91.4676 98.03 91.4676H95.0065ZM95.0065 73.9354V85.316H97.6598C98.935 85.316 99.9222 84.9879 100.621 84.3317C101.362 83.6755 101.732 82.4862 101.732 80.7638V78.3646C101.732 76.8062 101.444 75.6784 100.868 74.9812C100.334 74.284 99.4697 73.9354 98.2768 73.9354H95.0065Z" fill="#2E3330"/>
<path d="M127.478 110.845C127.395 110.558 127.313 110.292 127.231 110.046C127.149 109.799 127.066 109.492 126.984 109.123C126.943 108.754 126.902 108.282 126.861 107.708C126.861 107.134 126.861 106.416 126.861 105.555V98.7881C126.861 96.7785 126.511 95.3636 125.812 94.5434C125.112 93.7232 123.981 93.3131 122.418 93.3131H120.073V110.845H113.286V67.7838H123.529C127.066 67.7838 129.617 68.604 131.18 70.2445C132.784 71.8849 133.586 74.3661 133.586 77.6879V81.0713C133.586 85.5005 132.105 88.4123 129.144 89.8067C130.871 90.5039 132.044 91.6522 132.661 93.2516C133.319 94.81 133.648 96.717 133.648 98.9726V105.616C133.648 106.683 133.689 107.626 133.771 108.446C133.854 109.225 134.059 110.025 134.388 110.845H127.478ZM120.073 73.9354V87.1615H122.727C124.002 87.1615 124.989 86.8334 125.688 86.1772C126.429 85.521 126.799 84.3317 126.799 82.6092V78.3646C126.799 76.8062 126.511 75.6784 125.935 74.9812C125.4 74.284 124.536 73.9354 123.344 73.9354H120.073Z" fill="#2E3330"/>
<path d="M138.112 67.7838H144.899V110.845H138.112V67.7838Z" fill="#2E3330"/>
<path d="M155.909 79.6565V110.845H149.8V67.7838H158.315L165.287 93.5592V67.7838H171.334V110.845H164.362L155.909 79.6565Z" fill="#2E3330"/>
<path d="M186.375 86.8539H195.877V100.511C195.877 103.996 195.013 106.683 193.286 108.569C191.599 110.415 189.09 111.337 185.758 111.337C182.426 111.337 179.896 110.415 178.168 108.569C176.482 106.683 175.639 103.996 175.639 100.511V78.1186C175.639 74.6326 176.482 71.9669 178.168 70.1214C179.896 68.2349 182.426 67.2917 185.758 67.2917C189.09 67.2917 191.599 68.2349 193.286 70.1214C195.013 71.9669 195.877 74.6326 195.877 78.1186V82.3017H189.46V77.6879C189.46 76.1295 189.131 75.0427 188.473 74.4276C187.856 73.7714 187.012 73.4433 185.943 73.4433C184.873 73.4433 184.01 73.7714 183.351 74.4276C182.734 75.0427 182.426 76.1295 182.426 77.6879V100.941C182.426 102.5 182.734 103.586 183.351 104.201C184.01 104.817 184.873 105.124 185.943 105.124C187.012 105.124 187.856 104.817 188.473 104.201C189.131 103.586 189.46 102.5 189.46 100.941V93.0055H186.375V86.8539Z" fill="#2E3330"/>
<path d="M224.194 98.3574L228.822 67.7838H238.262V110.845H231.845V79.964L227.156 110.845H220.738L215.679 80.3947V110.845H209.755V67.7838H219.196L224.194 98.3574Z" fill="#2E3330"/>
<path d="M249.431 100.941C249.431 102.5 249.74 103.607 250.357 104.263C251.015 104.878 251.879 105.186 252.948 105.186C254.018 105.186 254.861 104.878 255.478 104.263C256.136 103.607 256.465 102.5 256.465 100.941V77.6879C256.465 76.1295 256.136 75.0427 255.478 74.4276C254.861 73.7714 254.018 73.4433 252.948 73.4433C251.879 73.4433 251.015 73.7714 250.357 74.4276C249.74 75.0427 249.431 76.1295 249.431 77.6879V100.941ZM242.644 78.1186C242.644 74.6326 243.528 71.9669 245.297 70.1214C247.066 68.2349 249.616 67.2917 252.948 67.2917C256.28 67.2917 258.831 68.2349 260.599 70.1214C262.368 71.9669 263.253 74.6326 263.253 78.1186V100.511C263.253 103.996 262.368 106.683 260.599 108.569C258.831 110.415 256.28 111.337 252.948 111.337C249.616 111.337 247.066 110.415 245.297 108.569C243.528 106.683 242.644 103.996 242.644 100.511V78.1186Z" fill="#2E3330"/>
<path d="M281.855 110.845C281.773 110.558 281.691 110.292 281.608 110.046C281.526 109.799 281.444 109.492 281.361 109.123C281.32 108.754 281.279 108.282 281.238 107.708C281.238 107.134 281.238 106.416 281.238 105.555V98.7881C281.238 96.7785 280.888 95.3636 280.189 94.5434C279.49 93.7232 278.359 93.3131 276.795 93.3131H274.451V110.845H267.663V67.7838H277.906C281.444 67.7838 283.994 68.604 285.557 70.2445C287.162 71.8849 287.964 74.3661 287.964 77.6879V81.0713C287.964 85.5005 286.483 88.4123 283.521 89.8067C285.249 90.5039 286.421 91.6522 287.038 93.2516C287.696 94.81 288.025 96.717 288.025 98.9726V105.616C288.025 106.683 288.066 107.626 288.149 108.446C288.231 109.225 288.437 110.025 288.766 110.845H281.855ZM274.451 73.9354V87.1615H277.104C278.379 87.1615 279.366 86.8334 280.066 86.1772C280.806 85.521 281.176 84.3317 281.176 82.6092V78.3646C281.176 76.8062 280.888 75.6784 280.312 74.9812C279.778 74.284 278.914 73.9354 277.721 73.9354H274.451Z" fill="#2E3330"/>
<path d="M299.276 85.9311H308.594V92.0828H299.276V104.694H311V110.845H292.489V67.7838H311V73.9354H299.276V85.9311Z" fill="#2E3330"/>
<path d="M2.41972 136.735C2.41972 133.454 3.19403 130.945 4.74264 129.208C6.32998 127.433 8.69162 126.545 11.8276 126.545C14.9635 126.545 17.3058 127.433 18.8544 129.208C20.4418 130.945 21.2354 133.454 21.2354 136.735V138.009H15.1958V136.33C15.1958 134.863 14.9055 133.84 14.3247 133.261C13.7827 132.644 13.0084 132.335 12.0018 132.335C10.9952 132.335 10.2015 132.644 9.62079 133.261C9.07878 133.84 8.80777 134.863 8.80777 136.33C8.80777 137.719 9.11749 138.955 9.73694 140.035C10.3564 141.078 11.1307 142.081 12.0599 143.046C12.989 143.972 13.9763 144.918 15.0216 145.883C16.1056 146.809 17.1122 147.832 18.0414 148.952C18.9706 150.071 19.7449 151.345 20.3643 152.773C20.9838 154.201 21.2935 155.88 21.2935 157.81C21.2935 161.091 20.4805 163.619 18.8544 165.395C17.2671 167.132 14.9055 168 11.7695 168C8.63355 168 6.25255 167.132 4.6265 165.395C3.03916 163.619 2.2455 161.091 2.2455 157.81V155.32H8.28511V158.215C8.28511 159.682 8.57548 160.705 9.15621 161.284C9.77566 161.863 10.5887 162.152 11.5953 162.152C12.6019 162.152 13.3956 161.863 13.9763 161.284C14.5957 160.705 14.9055 159.682 14.9055 158.215C14.9055 156.826 14.5957 155.61 13.9763 154.568C13.3568 153.487 12.5825 152.483 11.6534 151.557C10.7242 150.592 9.71758 149.646 8.63355 148.72C7.58823 147.755 6.60099 146.713 5.67182 145.594C4.74264 144.474 3.96834 143.2 3.34889 141.772C2.72944 140.344 2.41972 138.665 2.41972 136.735Z" fill="#2E3330"/>
<path d="M38.4845 155.784L42.84 127.008H51.7252V167.537H45.6856V138.472L41.272 167.537H35.2324L30.4704 138.877V167.537H24.8954V127.008H33.7806L38.4845 155.784Z" fill="#2E3330"/>
<path d="M56.372 127.008H62.76V167.537H56.372V127.008Z" fill="#2E3330"/>
<path d="M67.4308 127.008H73.8189V161.747H84.3301V167.537H67.4308V127.008Z" fill="#2E3330"/>
<path d="M93.498 144.088H102.267V149.878H93.498V161.747H104.532V167.537H87.1099V127.008H104.532V132.798H93.498V144.088Z" fill="#2E3330"/>
<path d="M107.677 136.735C107.677 133.454 108.452 130.945 110 129.208C111.588 127.433 113.949 126.545 117.085 126.545C120.221 126.545 122.563 127.433 124.112 129.208C125.699 130.945 126.493 133.454 126.493 136.735V138.009H120.453V136.33C120.453 134.863 120.163 133.84 119.582 133.261C119.04 132.644 118.266 132.335 117.259 132.335C116.253 132.335 115.459 132.644 114.878 133.261C114.336 133.84 114.065 134.863 114.065 136.33C114.065 137.719 114.375 138.955 114.995 140.035C115.614 141.078 116.388 142.081 117.318 143.046C118.247 143.972 119.234 144.918 120.279 145.883C121.363 146.809 122.37 147.832 123.299 148.952C124.228 150.071 125.003 151.345 125.622 152.773C126.241 154.201 126.551 155.88 126.551 157.81C126.551 161.091 125.738 163.619 124.112 165.395C122.525 167.132 120.163 168 117.027 168C113.891 168 111.51 167.132 109.884 165.395C108.297 163.619 107.503 161.091 107.503 157.81V155.32H113.543V158.215C113.543 159.682 113.833 160.705 114.414 161.284C115.033 161.863 115.846 162.152 116.853 162.152C117.86 162.152 118.653 161.863 119.234 161.284C119.853 160.705 120.163 159.682 120.163 158.215C120.163 156.826 119.853 155.61 119.234 154.568C118.615 153.487 117.84 152.483 116.911 151.557C115.982 150.592 114.975 149.646 113.891 148.72C112.846 147.755 111.859 146.713 110.929 145.594C110 144.474 109.226 143.2 108.607 141.772C107.987 140.344 107.677 138.665 107.677 136.735Z" fill="#2E3330"/>
<path d="M145.616 145.015H153.863V150.804H145.616V167.537H139.228V127.008H156.128V132.798H145.616V145.015Z" fill="#2E3330"/>
<path d="M165.056 158.215C165.056 159.682 165.347 160.724 165.928 161.342C166.547 161.921 167.36 162.21 168.367 162.21C169.373 162.21 170.167 161.921 170.748 161.342C171.367 160.724 171.677 159.682 171.677 158.215V136.33C171.677 134.863 171.367 133.84 170.748 133.261C170.167 132.644 169.373 132.335 168.367 132.335C167.36 132.335 166.547 132.644 165.928 133.261C165.347 133.84 165.056 134.863 165.056 136.33V158.215ZM158.668 136.735C158.668 133.454 159.501 130.945 161.166 129.208C162.83 127.433 165.231 126.545 168.367 126.545C171.503 126.545 173.903 127.433 175.568 129.208C177.232 130.945 178.065 133.454 178.065 136.735V157.81C178.065 161.091 177.232 163.619 175.568 165.395C173.903 167.132 171.503 168 168.367 168C165.231 168 162.83 167.132 161.166 165.395C159.501 163.619 158.668 161.091 158.668 157.81V136.735Z" fill="#2E3330"/>
<path d="M195.573 167.537C195.496 167.267 195.418 167.016 195.341 166.784C195.263 166.553 195.186 166.263 195.108 165.916C195.07 165.568 195.031 165.124 194.992 164.584C194.992 164.044 194.992 163.368 194.992 162.558V156.189C194.992 154.298 194.663 152.966 194.005 152.194C193.347 151.422 192.282 151.036 190.811 151.036H188.604V167.537H182.216V127.008H191.856C195.186 127.008 197.586 127.78 199.057 129.324C200.567 130.868 201.322 133.203 201.322 136.33V139.514C201.322 143.683 199.928 146.423 197.141 147.736C198.767 148.392 199.87 149.473 200.451 150.978C201.071 152.445 201.38 154.24 201.38 156.363V162.616C201.38 163.619 201.419 164.507 201.496 165.279C201.574 166.012 201.767 166.765 202.077 167.537H195.573ZM188.604 132.798V145.246H191.101C192.302 145.246 193.231 144.937 193.889 144.32C194.586 143.702 194.934 142.583 194.934 140.962V136.967C194.934 135.5 194.663 134.439 194.121 133.782C193.618 133.126 192.805 132.798 191.682 132.798H188.604Z" fill="#2E3330"/>
<path d="M212.74 127.008H232.485V132.798H225.807V167.537H219.419V132.798H212.74V127.008Z" fill="#2E3330"/>
<path d="M241.687 167.537H235.299V127.008H241.687V144.378H248.946V127.008H255.45V167.537H248.946V150.167H241.687V167.537Z" fill="#2E3330"/>
<path d="M266.47 144.088H275.239V149.878H266.47V161.747H277.504V167.537H260.082V127.008H277.504V132.798H266.47V144.088Z" fill="#2E3330"/>
<path d="M294.993 155.784L299.349 127.008H308.234V167.537H302.194V138.472L297.781 167.537H291.741L286.979 138.877V167.537H281.404V127.008H290.289L294.993 155.784Z" fill="#2E3330"/>
<path d="M10.4266 35.5975L0 0.598274H8.62629L14.9272 24.4546L21.2282 0.598274H29.1044L18.6778 35.5975V52.9475H10.4266V35.5975Z" fill="#FF978E"/>
<path d="M38.9185 40.9072C38.9185 42.8017 39.2936 44.1478 40.0437 44.9456C40.8438 45.6934 41.894 46.0673 43.1942 46.0673C44.4943 46.0673 45.5195 45.6934 46.2696 44.9456C47.0697 44.1478 47.4698 42.8017 47.4698 40.9072V12.6386C47.4698 10.7441 47.0697 9.42286 46.2696 8.67501C45.5195 7.87731 44.4943 7.47846 43.1942 7.47846C41.894 7.47846 40.8438 7.87731 40.0437 8.67501C39.2936 9.42286 38.9185 10.7441 38.9185 12.6386V40.9072ZM30.6673 13.1621C30.6673 8.92429 31.7424 5.68363 33.8928 3.44009C36.0431 1.1467 39.1435 0 43.1942 0C47.2448 0 50.3452 1.1467 52.4955 3.44009C54.6459 5.68363 55.721 8.92429 55.721 13.1621V40.3837C55.721 44.6215 54.6459 47.8871 52.4955 50.1805C50.3452 52.424 47.2448 53.5458 43.1942 53.5458C39.1435 53.5458 36.0431 52.424 33.8928 50.1805C31.7424 47.8871 30.6673 44.6215 30.6673 40.3837V13.1621Z" fill="#FF978E"/>
<path d="M68.9593 0.598274V40.982C68.9593 42.8765 69.3344 44.1977 70.0845 44.9456C70.8846 45.6934 71.9348 46.0673 73.235 46.0673C74.5352 46.0673 75.5603 45.6934 76.3104 44.9456C77.1106 44.1977 77.5106 42.8765 77.5106 40.982V0.598274H85.3118V40.4585C85.3118 44.6963 84.2616 47.9619 82.1613 50.2553C80.111 52.4988 77.0605 53.6206 73.0099 53.6206C68.9593 53.6206 65.8839 52.4988 63.7836 50.2553C61.7333 47.9619 60.7081 44.6963 60.7081 40.4585V0.598274H68.9593Z" fill="#FF978E"/>
<path d="M108.223 52.9475C108.123 52.5985 108.023 52.2744 107.923 51.9753C107.823 51.6762 107.723 51.3022 107.623 50.8535C107.573 50.4048 107.523 49.8315 107.473 49.1335C107.473 48.4355 107.473 47.563 107.473 46.516V38.2897C107.473 35.8468 107.048 34.1267 106.198 33.1296C105.348 32.1325 103.972 31.6339 102.072 31.6339H99.2217V52.9475H90.9704V0.598274H103.422C107.723 0.598274 110.823 1.5954 112.724 3.58966C114.674 5.58392 115.649 8.60023 115.649 12.6386V16.7518C115.649 22.1362 113.849 25.676 110.248 27.3712C112.349 28.2187 113.774 29.6147 114.524 31.5591C115.324 33.4536 115.724 35.772 115.724 38.5141V46.5908C115.724 47.8871 115.774 49.0338 115.874 50.0309C115.974 50.9782 116.224 51.9504 116.624 52.9475H108.223ZM99.2217 8.07674V24.1554H102.447C103.997 24.1554 105.198 23.7566 106.048 22.9589C106.948 22.1612 107.398 20.7153 107.398 18.6214V13.4612C107.398 11.5667 107.048 10.1956 106.348 9.34808C105.698 8.50052 104.647 8.07674 103.197 8.07674H99.2217Z" fill="#FF978E"/>
<path d="M145.25 0.598274C149.55 0.598274 152.651 1.5954 154.551 3.58966C156.502 5.58392 157.477 8.60023 157.477 12.6386V14.5082C157.477 17.2005 157.052 19.4191 156.201 21.164C155.351 22.909 154.001 24.2053 152.151 25.0528C154.401 25.9004 155.976 27.2964 156.877 29.2408C157.827 31.1353 158.302 33.4786 158.302 36.2705V40.5333C158.302 44.5716 157.252 47.6627 155.151 49.8065C153.051 51.9005 149.926 52.9475 145.775 52.9475H132.798V0.598274H145.25ZM141.049 29.3903V45.469H145.775C147.175 45.469 148.225 45.0951 148.925 44.3473C149.676 43.5994 150.051 42.2533 150.051 40.3089V35.747C150.051 33.3041 149.625 31.6339 148.775 30.7365C147.975 29.8391 146.625 29.3903 144.725 29.3903H141.049ZM141.049 8.07674V21.9119H144.275C145.825 21.9119 147.025 21.513 147.875 20.7153C148.775 19.9176 149.225 18.4718 149.225 16.3778V13.4612C149.225 11.5667 148.875 10.1956 148.175 9.34808C147.525 8.50052 146.475 8.07674 145.025 8.07674H141.049Z" fill="#FF978E"/>
<path d="M180.524 52.9475C180.424 52.5985 180.324 52.2744 180.224 51.9753C180.124 51.6762 180.024 51.3022 179.924 50.8535C179.874 50.4048 179.824 49.8315 179.774 49.1335C179.774 48.4355 179.774 47.563 179.774 46.516V38.2897C179.774 35.8468 179.349 34.1267 178.499 33.1296C177.648 32.1325 176.273 31.6339 174.373 31.6339H171.523V52.9475H163.271V0.598274H175.723C180.024 0.598274 183.124 1.5954 185.025 3.58966C186.975 5.58392 187.95 8.60023 187.95 12.6386V16.7518C187.95 22.1362 186.15 25.676 182.549 27.3712C184.649 28.2187 186.075 29.6147 186.825 31.5591C187.625 33.4536 188.025 35.772 188.025 38.5141V46.5908C188.025 47.8871 188.075 49.0338 188.175 50.0309C188.275 50.9782 188.525 51.9504 188.925 52.9475H180.524ZM171.523 8.07674V24.1554H174.748C176.298 24.1554 177.498 23.7566 178.349 22.9589C179.249 22.1612 179.699 20.7153 179.699 18.6214V13.4612C179.699 11.5667 179.349 10.1956 178.649 9.34808C177.998 8.50052 176.948 8.07674 175.498 8.07674H171.523Z" fill="#FF978E"/>
<path d="M220.156 52.9475H211.829L210.404 43.4499H200.278L198.852 52.9475H191.276L199.678 0.598274H211.754L220.156 52.9475ZM201.328 36.3453H209.279L205.303 9.87157L201.328 36.3453Z" fill="#FF978E"/>
<path d="M231.349 15.0317V52.9475H223.923V0.598274H234.275L242.751 31.933V0.598274H250.102V52.9475H241.626L231.349 15.0317Z" fill="#FF978E"/>
<path d="M256.01 0.598274H269.062C273.212 0.598274 276.288 1.69512 278.288 3.8888C280.338 6.08248 281.364 9.29822 281.364 13.536V40.0098C281.364 44.2476 280.338 47.4633 278.288 49.657C276.288 51.8507 273.212 52.9475 269.062 52.9475H256.01V0.598274ZM264.261 8.07674V45.469H268.912C270.212 45.469 271.237 45.0951 271.987 44.3473C272.737 43.5994 273.112 42.2782 273.112 40.3837V13.1621C273.112 11.2675 272.737 9.94635 271.987 9.1985C271.237 8.45066 270.212 8.07674 268.912 8.07674H264.261Z" fill="#FF978E"/>
<path d="M285.579 13.1621C285.579 8.92429 286.58 5.68363 288.58 3.44009C290.63 1.1467 293.681 0 297.731 0C301.782 0 304.807 1.1467 306.808 3.44009C308.858 5.68363 309.883 8.92429 309.883 13.1621V14.8073H302.082V12.6386C302.082 10.7441 301.707 9.42286 300.957 8.67501C300.257 7.87731 299.256 7.47846 297.956 7.47846C296.656 7.47846 295.631 7.87731 294.881 8.67501C294.181 9.42286 293.831 10.7441 293.831 12.6386C293.831 14.4334 294.231 16.0288 295.031 17.4248C295.831 18.7709 296.831 20.0672 298.031 21.3136C299.231 22.5102 300.507 23.7316 301.857 24.9781C303.257 26.1746 304.557 27.4958 305.757 28.9416C306.958 30.3875 307.958 32.0327 308.758 33.8774C309.558 35.7221 309.958 37.8909 309.958 40.3837C309.958 44.6215 308.908 47.8871 306.808 50.1805C304.757 52.424 301.707 53.5458 297.656 53.5458C293.606 53.5458 290.53 52.424 288.43 50.1805C286.38 47.8871 285.354 44.6215 285.354 40.3837V37.1679H293.156V40.9072C293.156 42.8017 293.531 44.1229 294.281 44.8708C295.081 45.6186 296.131 45.9925 297.431 45.9925C298.731 45.9925 299.757 45.6186 300.507 44.8708C301.307 44.1229 301.707 42.8017 301.707 40.9072C301.707 39.1123 301.307 37.5419 300.507 36.1957C299.707 34.7998 298.706 33.5035 297.506 32.3069C296.306 31.0605 295.006 29.8391 293.606 28.6425C292.255 27.3961 290.98 26.05 289.78 24.6041C288.58 23.1583 287.58 21.513 286.78 19.6684C285.979 17.8237 285.579 15.6549 285.579 13.1621Z" fill="#FF978E"/>
</svg>
