<svg width="80" height="90" viewBox="0 0 80 90" fill="none" xmlns="http://www.w3.org/2000/svg">
<g clip-path="url(#clip0_127_107)">
<path d="M48.7108 12.9122L48.3209 12.5816C47.4948 11.8837 46.5574 11.3418 45.5549 10.9837C46.4274 9.83571 46.9472 8.41224 46.9472 6.86939C46.9472 3.07653 43.8378 0 40.0044 0C36.171 0 33.0616 3.07653 33.0616 6.86939C33.0616 8.41224 33.5814 9.83571 34.4539 10.9837C33.4514 11.3418 32.514 11.8837 31.6879 12.5816L31.2981 12.9122C28.5414 15.2633 27.771 19.1755 29.4417 22.3714L40.0044 42.5296L50.5671 22.3714C52.2378 19.1755 51.4767 15.2541 48.7108 12.9122Z" fill="#72C260"/>
<path d="M31.2891 77.0786L31.6789 77.4092C32.505 78.1071 33.4425 78.649 34.4449 79.0071C33.5724 80.1551 33.0526 81.5786 33.0526 83.1214C33.0526 86.9143 36.162 89.9908 39.9954 89.9908C43.8288 89.9908 46.9382 86.9143 46.9382 83.1214C46.9382 81.5786 46.4185 80.1551 45.546 79.0071C46.5484 78.649 47.4859 78.1071 48.3119 77.4092L48.7018 77.0786C51.4585 74.7275 52.2289 70.8153 50.5581 67.6194L39.9954 47.4612L29.4327 67.6194C27.762 70.8153 28.5231 74.7367 31.2891 77.0786Z" fill="#72C260"/>
<path d="M72.287 35.899L72.3705 35.403C72.5562 34.3469 72.5376 33.2724 72.3334 32.2347C73.7721 32.3816 75.2757 32.0969 76.6123 31.2979C79.9074 29.351 80.9748 25.1265 78.9978 21.8663C77.0207 18.6061 72.7604 17.55 69.4653 19.5061C68.1287 20.2959 67.1634 21.4714 66.6158 22.803C65.7897 22.1326 64.843 21.6184 63.8127 21.2786L63.33 21.1224C59.8772 19.9837 56.0902 21.352 54.1782 24.4102L42.1304 43.7326L65.0286 42.3367C68.6578 42.1163 71.6651 39.453 72.2777 35.899H72.287Z" fill="#72C260"/>
<path d="M7.7041 54.101L7.62057 54.5969C7.43493 55.653 7.4535 56.7275 7.6577 57.7653C6.21901 57.6184 4.71536 57.903 3.37878 58.702C0.0837313 60.649 -0.983678 64.8735 0.99335 68.1337C2.97038 71.3939 7.23073 72.45 10.5258 70.4939C11.8624 69.7041 12.8277 68.5286 13.3753 67.1969C14.2014 67.8673 15.1481 68.3816 16.1784 68.7214L16.6611 68.8775C20.1139 70.0163 23.9009 68.6479 25.8129 65.5898L37.8607 46.2673L14.9625 47.6633C11.3333 47.8837 8.32599 50.5469 7.71339 54.101H7.7041Z" fill="#72C260"/>
<path d="M7.7041 35.899L7.62057 35.403C7.43493 34.3469 7.4535 33.2724 7.6577 32.2347C6.21901 32.3816 4.71536 32.0969 3.37878 31.2979C0.0837313 29.3418 -0.983678 25.1265 0.99335 21.8663C2.97038 18.6061 7.23073 17.55 10.5258 19.5061C11.8624 20.2959 12.8277 21.4714 13.3753 22.803C14.2014 22.1326 15.1481 21.6184 16.1784 21.2786L16.6611 21.1224C20.1139 19.9837 23.9009 21.352 25.8129 24.4102L37.8607 43.7326L14.9625 42.3367C11.3333 42.1163 8.32599 39.453 7.71339 35.899H7.7041Z" fill="#72C260"/>
<path d="M72.287 54.101L72.3705 54.5969C72.5562 55.653 72.5376 56.7275 72.3334 57.7653C73.7721 57.6184 75.2757 57.903 76.6123 58.702C79.9074 60.649 80.9748 64.8735 78.9978 68.1337C77.0207 71.3939 72.7604 72.45 69.4653 70.4939C68.1287 69.7041 67.1634 68.5286 66.6158 67.1969C65.7897 67.8673 64.843 68.3816 63.8127 68.7214L63.33 68.8775C59.8772 70.0163 56.0902 68.6479 54.1782 65.5898L42.1304 46.2673L65.0286 47.6633C68.6578 47.8837 71.6651 50.5469 72.2777 54.101H72.287Z" fill="#72C260"/>
</g>
<defs>
<clipPath id="clip0_127_107">
<rect width="80" height="90" fill="white"/>
</clipPath>
</defs>
</svg>
