<svg width="75" height="84" viewBox="0 0 75 84" fill="none" xmlns="http://www.w3.org/2000/svg">
<g clip-path="url(#clip0_127_142)">
<path d="M37.4998 11.5904C42.4835 11.5904 47.0738 12.5248 50.6992 14.0822C48.6758 9.71243 43.5421 6.60687 37.4998 6.60687C31.4574 6.60687 26.3238 9.71243 24.3003 14.0822C27.9257 12.5248 32.516 11.5904 37.4998 11.5904Z" fill="#EE7B6D"/>
<path d="M37.4998 9.00707C39.8591 9.00707 41.7716 7.13679 41.7716 4.82968C41.7716 2.52257 39.8591 0.652283 37.4998 0.652283C35.1406 0.652283 33.228 2.52257 33.228 4.82968C33.228 7.13679 35.1406 9.00707 37.4998 9.00707Z" fill="#EE7B6D"/>
<path d="M37.4998 72.236C32.516 72.236 27.9257 71.3015 24.3003 69.7442C26.3238 74.1139 31.4574 77.2195 37.4998 77.2195C43.5421 77.2195 48.6758 74.1139 50.6992 69.7442C47.0738 71.3015 42.4835 72.236 37.4998 72.236Z" fill="#EE7B6D"/>
<path d="M37.4998 83.1741C39.8591 83.1741 41.7716 81.3038 41.7716 78.9967C41.7716 76.6896 39.8591 74.8193 37.4998 74.8193C35.1406 74.8193 33.228 76.6896 33.228 78.9967C33.228 81.3038 35.1406 83.1741 37.4998 83.1741Z" fill="#EE7B6D"/>
<path d="M64.6765 27.3015C67.084 31.5705 68.4518 35.9494 68.7984 39.8153C71.7399 35.9769 72.0491 30.0772 69.1356 24.9013C66.2222 19.7254 60.9574 16.8213 56.0767 17.1969C59.2243 19.5513 62.2689 23.0325 64.6765 27.3015Z" fill="#EE7B6D"/>
<path d="M70.7283 28.2176C73.0876 28.2176 75.0001 26.3473 75.0001 24.0402C75.0001 21.7331 73.0876 19.8628 70.7283 19.8628C68.3691 19.8628 66.4565 21.7331 66.4565 24.0402C66.4565 26.3473 68.3691 28.2176 70.7283 28.2176Z" fill="#EE7B6D"/>
<path d="M10.3327 56.5249C7.9251 52.2559 6.55738 47.877 6.21076 44.011C3.26922 47.8495 2.96008 53.7491 5.87352 58.9251C8.78696 64.101 14.0518 67.005 18.9325 66.6294C15.7848 64.2751 12.7402 60.7939 10.3327 56.5249Z" fill="#EE7B6D"/>
<path d="M4.2718 63.9636C6.63104 63.9636 8.54359 62.0933 8.54359 59.7862C8.54359 57.4791 6.63104 55.6088 4.2718 55.6088C1.91255 55.6088 0 57.4791 0 59.7862C0 62.0933 1.91255 63.9636 4.2718 63.9636Z" fill="#EE7B6D"/>
<path d="M64.4702 56.8822C62.0064 61.1237 58.915 64.5591 55.7393 66.8768C60.62 67.3165 65.9222 64.4766 68.9013 59.3465C71.8803 54.2072 71.6554 48.3075 68.7701 44.4325C68.3673 48.2892 66.934 52.6498 64.4702 56.8914V56.8822Z" fill="#EE7B6D"/>
<path d="M70.4847 64.4033C72.8439 64.4033 74.7565 62.5331 74.7565 60.2259C74.7565 57.9188 72.8439 56.0486 70.4847 56.0486C68.1254 56.0486 66.2129 57.9188 66.2129 60.2259C66.2129 62.5331 68.1254 64.4033 70.4847 64.4033Z" fill="#EE7B6D"/>
<path d="M10.5388 26.9442C13.0026 22.7027 16.094 19.2673 19.2698 16.9496C14.389 16.5099 9.08676 19.3498 6.10775 24.4799C3.12873 29.6192 3.35356 35.5189 6.2389 39.3939C6.64172 35.5372 8.07502 31.1766 10.5388 26.935V26.9442Z" fill="#EE7B6D"/>
<path d="M4.52473 27.7779C6.88397 27.7779 8.79652 25.9076 8.79652 23.6005C8.79652 21.2934 6.88397 19.4231 4.52473 19.4231C2.16548 19.4231 0.25293 21.2934 0.25293 23.6005C0.25293 25.9076 2.16548 27.7779 4.52473 27.7779Z" fill="#EE7B6D"/>
<path d="M40.4697 44.0019V39.8336C40.5821 33.5309 39.8982 27.2465 38.4181 21.1087L37.5094 17.3344L36.5726 21.2186C35.1206 27.274 34.4367 33.4851 34.5397 39.7054V39.8245V43.9927C34.4273 50.2955 35.1112 56.5799 36.5913 62.7177L37.5 66.492L38.4368 62.6078C39.8888 56.5524 40.5727 50.3413 40.4697 44.121V44.0019Z" fill="#EE7B6D"/>
<path d="M35.3734 44.8172H39.6358C46.081 44.9271 52.5074 44.2584 58.7839 42.811L62.6436 41.9223L58.6715 41.0062C52.4793 39.5863 46.1278 38.9176 39.767 39.0183H39.6452H35.3827C28.9376 38.9084 22.5111 39.5771 16.2346 41.0246L12.375 41.9132L16.347 42.8293C22.5393 44.2492 28.8907 44.918 35.2516 44.8172H35.3734Z" fill="#EE7B6D"/>
<path d="M38.0901 45.4401L41.1066 42.4903C45.7438 38.1114 49.8001 33.1919 53.1913 27.8328L55.271 24.5349L51.8049 26.6419C46.3995 29.9215 41.4251 33.8332 37.0035 38.3038L36.9191 38.3954L33.9027 41.3452C29.2655 45.7241 25.2092 50.6436 21.818 56.0027L19.7383 59.3007L23.2044 57.1936C28.6098 53.914 33.5841 50.0023 38.0058 45.5318L38.0901 45.4401Z" fill="#EE7B6D"/>
<path d="M33.8935 42.4904L36.91 45.4403C41.3879 49.9749 46.4185 53.9416 51.8987 57.2579L55.2712 59.2916L53.1166 55.9021C49.7628 50.6162 45.7627 45.7517 41.1911 41.4278L41.0974 41.3453L38.081 38.3955C33.6031 33.8608 28.5725 29.8941 23.0922 26.5779L19.7197 24.5441L21.8744 27.9337C25.2281 33.2195 29.2282 38.084 33.7998 42.408L33.8935 42.4904Z" fill="#EE7B6D"/>
<path d="M38.2494 42.4354V41.3819C38.2775 39.797 38.1088 38.2122 37.7341 36.664L37.5093 35.7112L37.2751 36.6915C36.9097 38.2122 36.7411 39.7787 36.7598 41.3452V41.3727V42.4262C36.7317 44.0111 36.9004 45.5959 37.2751 47.1441L37.4999 48.0968L37.7341 47.1166C38.0995 45.5959 38.2681 44.0294 38.2494 42.4629V42.4354Z" fill="white"/>
<path d="M37.3407 42.8018L38.3056 42.3438C39.7763 41.675 41.1628 40.8322 42.4181 39.8337L43.1957 39.2199L42.1933 39.4397C40.6288 39.7787 39.1206 40.31 37.6873 41.0154L37.6592 41.0338L36.6943 41.4918C35.2235 42.1605 33.837 43.0034 32.5817 44.0019L31.8042 44.6157L32.8066 44.3958C34.371 44.0569 35.8793 43.5255 37.3126 42.8201L37.3407 42.8018Z" fill="white"/>
<path d="M37.6592 42.8018L36.6943 42.3438C35.2235 41.675 33.837 40.8322 32.5817 39.8337L31.8042 39.2199L32.8066 39.4397C34.371 39.7787 35.8793 40.31 37.3126 41.0154L37.3407 41.0338L38.3056 41.4918C39.7763 42.1605 41.1628 43.0034 42.4181 44.0019L43.1957 44.6157L42.1933 44.3958C40.6288 44.0569 39.1206 43.5255 37.6873 42.8201L37.6592 42.8018Z" fill="white"/>
</g>
<defs>
<clipPath id="clip0_127_142">
<rect width="75" height="82.5218" fill="white" transform="translate(0 0.652283)"/>
</clipPath>
</defs>
</svg>
